# xmcd CD database file
#
# Track frame offsets:
#	180
#	13463
#	25833
#	40007
#	54185
#	71837
#	85894
#	107502
#	121002
#	138268
#	153859
#	168139
#	184754
#	193155
#	201932
#	211074
#	219252
#	229319
#	240879
#	250291
#	258939
#	271017
#	281729
#	293355
#	302725
#	312037
#
# Disc length: 4304 seconds
#
# Revision: 0
# Processed by: cddbd v1.5.1PL0 Copyright (c) Steve Scherf et al.
# Submitted via: CDex 1.51
#
DISCID=5c10ce1a
DTITLE=Buddy Emmons - Steel Guitar Jazz in Four Wheel Drive
DYEAR=1996
DGENRE=Jazz
TTITLE0=Bluemmons
TTITLE1=Any Time
TTITLE2=Where Or When
TTITLE3=Back Home Again in Indiana
TTITLE4=Gravy Waltz
TTITLE5=Oleo
TTITLE6=Rock Candy
TTITLE7=The Preacher
TTITLE8=Cherokee
TTITLE9=Witchcraft
TTITLE10=Gonna Build a Mountain
TTITLE11=There Will Never Be Another You
TTITLE12=Four Wheel Drive
TTITLE13=Red Wing
TTITLE14=Raisin' the Dickens
TTITLE15=Cajun Steel Guitar
TTITLE16=Silver Bells
TTITLE17=Border Serenade
TTITLE18=Cold Rolled Steel
TTITLE19=Flint Hill Special
TTITLE20=Blue Wind
TTITLE21=Buddie's Boogie
TTITLE22=Lily Dale
TTITLE23=Country Boy Bounce
TTITLE24=La Golondrina
TTITLE25=Rose City Chimes
EXTD=YEAR: 1996
EXTT0=
EXTT1=
EXTT2=
EXTT3=
EXTT4=
EXTT5=
EXTT6=
EXTT7=
EXTT8=
EXTT9=
EXTT10=
EXTT11=
EXTT12=
EXTT13=
EXTT14=
EXTT15=
EXTT16=
EXTT17=
EXTT18=
EXTT19=
EXTT20=
EXTT21=
EXTT22=
EXTT23=
EXTT24=
EXTT25=
PLAYORDER=
